<mxfile host="app.diagrams.net" modified="2022-06-18T01:05:46.973Z" agent="5.0 (X11; Linux x86_64) AppleWebKit/537.36 (KHTML, like Gecko) Chrome/102.0.5005.115 Safari/537.36" etag="naigy9_jh6zeqcdyBm_S" version="20.0.1" type="github">
  <diagram id="CM0ttUzD1BJaOsxiWda6" name="Page-1">
    <mxGraphModel dx="808" dy="456" grid="1" gridSize="10" guides="1" tooltips="1" connect="1" arrows="1" fold="1" page="1" pageScale="1" pageWidth="850" pageHeight="1100" math="0" shadow="0">
      <root>
        <mxCell id="0" />
        <mxCell id="1" parent="0" />
        <mxCell id="hObIZjpjynoihtVoNpKq-1" value="Attribute" style="ellipse;whiteSpace=wrap;html=1;align=center;" vertex="1" parent="1">
          <mxGeometry x="360" y="480" width="100" height="40" as="geometry" />
        </mxCell>
        <mxCell id="hObIZjpjynoihtVoNpKq-3" value="" style="shape=table;startSize=0;container=1;collapsible=1;childLayout=tableLayout;fixedRows=1;rowLines=0;fontStyle=0;align=center;resizeLast=1;strokeColor=none;fillColor=none;collapsible=0;" vertex="1" parent="1">
          <mxGeometry x="320" y="590" width="180" height="30" as="geometry" />
        </mxCell>
        <mxCell id="hObIZjpjynoihtVoNpKq-4" value="" style="shape=tableRow;horizontal=0;startSize=0;swimlaneHead=0;swimlaneBody=0;fillColor=none;collapsible=0;dropTarget=0;points=[[0,0.5],[1,0.5]];portConstraint=eastwest;top=0;left=0;right=0;bottom=1;" vertex="1" parent="hObIZjpjynoihtVoNpKq-3">
          <mxGeometry width="180" height="30" as="geometry" />
        </mxCell>
        <mxCell id="hObIZjpjynoihtVoNpKq-5" value="PK" style="shape=partialRectangle;connectable=0;fillColor=none;top=0;left=0;bottom=0;right=0;fontStyle=1;overflow=hidden;" vertex="1" parent="hObIZjpjynoihtVoNpKq-4">
          <mxGeometry width="30" height="30" as="geometry">
            <mxRectangle width="30" height="30" as="alternateBounds" />
          </mxGeometry>
        </mxCell>
        <mxCell id="hObIZjpjynoihtVoNpKq-6" value="UniqueID" style="shape=partialRectangle;connectable=0;fillColor=none;top=0;left=0;bottom=0;right=0;align=left;spacingLeft=6;fontStyle=5;overflow=hidden;" vertex="1" parent="hObIZjpjynoihtVoNpKq-4">
          <mxGeometry x="30" width="150" height="30" as="geometry">
            <mxRectangle width="150" height="30" as="alternateBounds" />
          </mxGeometry>
        </mxCell>
        <mxCell id="hObIZjpjynoihtVoNpKq-7" value="" style="shape=link;html=1;rounded=0;" edge="1" parent="1">
          <mxGeometry relative="1" as="geometry">
            <mxPoint x="80" y="499.5" as="sourcePoint" />
            <mxPoint x="240" y="499.5" as="targetPoint" />
          </mxGeometry>
        </mxCell>
        <mxCell id="hObIZjpjynoihtVoNpKq-8" value="N" style="resizable=0;html=1;align=right;verticalAlign=bottom;" connectable="0" vertex="1" parent="hObIZjpjynoihtVoNpKq-7">
          <mxGeometry x="1" relative="1" as="geometry" />
        </mxCell>
        <mxCell id="hObIZjpjynoihtVoNpKq-9" value="" style="shape=link;html=1;rounded=0;" edge="1" parent="1">
          <mxGeometry relative="1" as="geometry">
            <mxPoint x="120" y="630" as="sourcePoint" />
            <mxPoint x="490" y="500" as="targetPoint" />
          </mxGeometry>
        </mxCell>
        <mxCell id="hObIZjpjynoihtVoNpKq-10" value="N" style="resizable=0;html=1;align=right;verticalAlign=bottom;" connectable="0" vertex="1" parent="hObIZjpjynoihtVoNpKq-9">
          <mxGeometry x="1" relative="1" as="geometry" />
        </mxCell>
        <mxCell id="hObIZjpjynoihtVoNpKq-11" value="Boundary Object" style="shape=umlBoundary;whiteSpace=wrap;html=1;" vertex="1" parent="1">
          <mxGeometry x="280" y="300" width="100" height="80" as="geometry" />
        </mxCell>
        <mxCell id="hObIZjpjynoihtVoNpKq-12" value="" style="rounded=0;orthogonalLoop=1;jettySize=auto;html=1;endArrow=none;endFill=0;sketch=0;sourcePerimeterSpacing=0;targetPerimeterSpacing=0;" edge="1" target="hObIZjpjynoihtVoNpKq-14" parent="1">
          <mxGeometry relative="1" as="geometry">
            <mxPoint x="390" y="505" as="sourcePoint" />
          </mxGeometry>
        </mxCell>
        <mxCell id="hObIZjpjynoihtVoNpKq-13" value="" style="rounded=0;orthogonalLoop=1;jettySize=auto;html=1;endArrow=halfCircle;endFill=0;endSize=6;strokeWidth=1;sketch=0;" edge="1" parent="1">
          <mxGeometry relative="1" as="geometry">
            <mxPoint x="430" y="505" as="sourcePoint" />
            <mxPoint x="560" y="610" as="targetPoint" />
          </mxGeometry>
        </mxCell>
        <mxCell id="hObIZjpjynoihtVoNpKq-14" value="" style="ellipse;whiteSpace=wrap;html=1;align=center;aspect=fixed;resizable=0;points=[];outlineConnect=0;sketch=0;" vertex="1" parent="1">
          <mxGeometry x="425" y="380" width="10" height="10" as="geometry" />
        </mxCell>
      </root>
    </mxGraphModel>
  </diagram>
</mxfile>
